<?xml version="1.0" standalone="no"?>
<!DOCTYPE svg PUBLIC "-//W3C//DTD SVG 20010904//EN"
 "http://www.w3.org/TR/2001/REC-SVG-20010904/DTD/svg10.dtd">
<svg version="1.0" xmlns="http://www.w3.org/2000/svg"
 width="1024.000000pt" height="1024.000000pt" viewBox="0 0 1024.000000 1024.000000"
 preserveAspectRatio="xMidYMid meet">

<g transform="translate(0.000000,1024.000000) scale(0.100000,-0.100000)"
fill="#000000" stroke="none">
<path d="M3921 7204 c-126 -34 -265 -141 -323 -249 -22 -42 -402 -1014 -900
-2300 -66 -170 -165 -427 -221 -570 -91 -235 -101 -266 -101 -325 1 -211 220
-355 402 -264 69 34 96 68 206 256 816 1399 791 1358 798 1330 4 -15 100 -574
213 -1242 134 -787 215 -1241 231 -1290 46 -139 144 -279 256 -367 88 -69 141
-98 250 -135 86 -29 103 -32 223 -32 151 0 218 14 341 75 96 47 194 125 261
208 27 33 166 274 317 548 148 268 386 700 529 958 142 259 306 555 364 659
57 104 101 192 96 196 -12 11 -1635 851 -1638 848 -2 -2 -33 -77 -70 -168 -38
-91 -72 -169 -76 -173 -8 -11 19 -98 -269 858 -132 440 -250 824 -260 853 -57
155 -201 284 -365 327 -73 19 -192 18 -264 -1z"/>
</g>
</svg>
